# xmcd
# 
# Track frame offsets:
#     150
#     26814
#     45860
#     79036
#     104311
#     135203
#     139011
#     161862
#     187461
#     211979
#     236220
#     253804
#     268052
# 
# Disc length: 4129
# 
# Revision: 3
# Processed by: cddbd v1.5.2PL0 Copyright (c) Steve Scherf et al.
# Submitted via: BonkEnc v1.0.6
# 
DISCID=bb101f0d
DTITLE=Stoney Curtis Band - Acid Blues Experience
DYEAR=2005
DGENRE=Blues
TTITLE0=Last Train To Chicago
TTITLE1=Evil Woman
TTITLE2=Bullets
TTITLE3=Mulholland Shuffle
TTITLE4=Crashin' Down Like Thunder
TTITLE5=(Take Off) 
TTITLE6=Around The World
TTITLE7=Colors
TTITLE8=Free
TTITLE9=Soul Love
TTITLE10=Like A Man
TTITLE11=Baby Needs Lovin'
TTITLE12=World Without You
EXTD=
EXTT0=
EXTT1=
EXTT2=
EXTT3=
EXTT4=
EXTT5=
EXTT6=
EXTT7=
EXTT8=
EXTT9=
EXTT10=
EXTT11=
EXTT12=
PLAYORDER=
